<svg width="59" height="60" viewBox="0 0 59 60" fill="none" xmlns="http://www.w3.org/2000/svg">
<rect y="0.5" width="59" height="59" rx="29.5" fill="#002C42"/>
<path d="M24.7461 22.3267C24.7461 22.3267 24.61 22.1931 24.3379 21.9259C24.0658 21.6587 23.5573 21.5251 22.8125 21.5251C22.0677 21.5251 21.4232 21.7923 20.8789 22.3267C20.3346 22.861 20.0625 23.4938 20.0625 24.2251V39.0751H23.5V41.1001H18.6875C18.487 41.1001 18.3223 41.0368 18.1934 40.9103C18.0645 40.7837 18 40.622 18 40.4251V24.2251C18 22.9313 18.4727 21.8204 19.418 20.8923C20.3633 19.9642 21.4948 19.5001 22.8125 19.5001C23.5286 19.5001 24.2233 19.6688 24.8965 20.0063C25.5697 20.3438 26.1426 20.8079 26.6152 21.3985C27.0879 21.9892 27.3958 22.636 27.5391 23.3392H27.4961C26.9232 23.5923 26.4792 24.0142 26.1641 24.6048L25.5625 25.786V24.2251C25.5625 23.4938 25.2904 22.861 24.7461 22.3267ZM35.1875 28.9501C35.388 28.9501 35.5527 29.0134 35.6816 29.1399C35.8105 29.2665 35.875 29.4282 35.875 29.6251V32.3251C35.875 32.522 35.8105 32.6837 35.6816 32.8103C35.5527 32.9368 35.388 33.0001 35.1875 33.0001H32.4375C32.237 33.0001 32.0723 32.9368 31.9434 32.8103C31.8145 32.6837 31.75 32.522 31.75 32.3251V29.6251C31.75 29.4282 31.8145 29.2665 31.9434 29.1399C32.0723 29.0134 32.237 28.9501 32.4375 28.9501H35.1875ZM42.6211 29.8782C42.707 30.0751 42.75 30.286 42.75 30.511V40.4251C42.75 40.622 42.6855 40.7837 42.5566 40.9103C42.4277 41.0368 42.263 41.1001 42.0625 41.1001H24.875V30.511C24.875 30.286 24.918 30.0751 25.0039 29.8782L27.4102 25.1954C27.4674 25.0829 27.5391 24.9845 27.625 24.9001C27.625 24.9001 27.6465 24.879 27.6895 24.8368C27.7324 24.7946 27.7897 24.7454 27.8613 24.6892C27.9329 24.6329 27.9974 24.5907 28.0547 24.5626L33.2539 22.3267C33.4258 22.2423 33.612 22.2001 33.8125 22.2001C34.013 22.2001 34.1992 22.2423 34.3711 22.3267L39.5703 24.5626C39.8568 24.7032 40.0716 24.9142 40.2148 25.1954L42.6211 29.8782ZM40.6875 39.0751V30.6376L38.4961 26.3345L33.8125 24.3095L29.1289 26.3345L26.9375 30.6376V39.0751H31.75V36.3751C31.75 36.1782 31.8145 36.0165 31.9434 35.8899C32.0723 35.7634 32.237 35.7001 32.4375 35.7001H35.1875C35.388 35.7001 35.5527 35.7634 35.6816 35.8899C35.8105 36.0165 35.875 36.1782 35.875 36.3751V39.0751H40.6875Z" fill="white"/>
</svg>
