<svg width="59" height="60" viewBox="0 0 59 60" fill="none" xmlns="http://www.w3.org/2000/svg">
<rect y="0.5" width="59" height="59" rx="29.5" fill="#002C42"/>
<path d="M38.25 19.5C38.9948 19.5 39.6393 19.7598 40.1836 20.2793C40.7279 20.7988 41 21.4141 41 22.125V33.9375C41 34.6484 40.7279 35.2637 40.1836 35.7832C39.6393 36.3027 38.9948 36.5625 38.25 36.5625H32.0625L26.6914 40.418C26.6055 40.4727 26.5052 40.5 26.3906 40.5C26.0469 40.5 25.875 40.3359 25.875 40.0078V36.5625H21.75C21.0052 36.5625 20.3607 36.3027 19.8164 35.7832C19.2721 35.2637 19 34.6484 19 33.9375V22.125C19 21.4141 19.2721 20.7988 19.8164 20.2793C20.3607 19.7598 21.0052 19.5 21.75 19.5H38.25ZM38.9375 33.9375V22.125C38.9375 21.9336 38.873 21.7764 38.7441 21.6533C38.6152 21.5303 38.4505 21.4688 38.25 21.4688H21.75C21.5495 21.4688 21.3848 21.5303 21.2559 21.6533C21.127 21.7764 21.0625 21.9336 21.0625 22.125V33.9375C21.0625 34.1289 21.127 34.2861 21.2559 34.4092C21.3848 34.5322 21.5495 34.5938 21.75 34.5938H27.9375V37.0547L30.8164 35.0039L31.375 34.5938H38.25C38.4505 34.5938 38.6152 34.5322 38.7441 34.4092C38.873 34.2861 38.9375 34.1289 38.9375 33.9375ZM23.5332 27.1084C23.5332 27.1084 23.6012 27.0435 23.7373 26.9136C23.8734 26.7837 24.1276 26.7188 24.5 26.7188C24.8724 26.7188 25.1947 26.8486 25.4668 27.1084C25.7389 27.3682 25.875 27.6758 25.875 28.0312C25.875 28.3867 25.7389 28.6943 25.4668 28.9541C25.1947 29.2139 24.8724 29.3438 24.5 29.3438C24.1276 29.3438 23.8053 29.2139 23.5332 28.9541C23.2611 28.6943 23.125 28.3867 23.125 28.0312C23.125 27.6758 23.2611 27.3682 23.5332 27.1084ZM29.0332 27.1084C29.0332 27.1084 29.1012 27.0435 29.2373 26.9136C29.3734 26.7837 29.6276 26.7188 30 26.7188C30.3724 26.7188 30.6947 26.8486 30.9668 27.1084C31.2389 27.3682 31.375 27.6758 31.375 28.0312C31.375 28.3867 31.2389 28.6943 30.9668 28.9541C30.6947 29.2139 30.3724 29.3438 30 29.3438C29.6276 29.3438 29.3053 29.2139 29.0332 28.9541C28.7611 28.6943 28.625 28.3867 28.625 28.0312C28.625 27.6758 28.7611 27.3682 29.0332 27.1084ZM34.5332 27.1084C34.5332 27.1084 34.6012 27.0435 34.7373 26.9136C34.8734 26.7837 35.1276 26.7188 35.5 26.7188C35.8724 26.7188 36.1947 26.8486 36.4668 27.1084C36.7389 27.3682 36.875 27.6758 36.875 28.0312C36.875 28.3867 36.7389 28.6943 36.4668 28.9541C36.1947 29.2139 35.8724 29.3438 35.5 29.3438C35.1276 29.3438 34.8053 29.2139 34.5332 28.9541C34.2611 28.6943 34.125 28.3867 34.125 28.0312C34.125 27.6758 34.2611 27.3682 34.5332 27.1084Z" fill="white"/>
</svg>
